<?xml version="1.0" standalone="no"?>
<!DOCTYPE svg PUBLIC "-//W3C//DTD SVG 20010904//EN"
 "http://www.w3.org/TR/2001/REC-SVG-20010904/DTD/svg10.dtd">
<svg version="1.0" xmlns="http://www.w3.org/2000/svg"
 width="16.000000pt" height="16.000000pt" viewBox="0 0 16.000000 16.000000"
 preserveAspectRatio="xMidYMid meet">
<metadata>
Created by potrace 1.11, written by Peter Selinger 2001-2013
</metadata>
<g transform="translate(0.000000,16.000000) scale(0.004145,-0.004145)"
fill="#000000" stroke="none">
<path d="M1910 3329 c0 -165 3 -210 13 -206 6 2 145 48 307 102 162 54 299
100 304 103 9 5 -595 212 -616 212 -5 0 -8 -95 -8 -211z"/>
<path d="M1883 2958 c-15 -7 -31 -35 -49 -87 -199 -557 -458 -1100 -701 -1470
-277 -423 -538 -642 -791 -665 -60 -5 -78 -16 -84 -50 -8 -38 9 -55 89 -92
202 -92 574 -197 848 -239 55 -9 111 -18 125 -20 14 -3 54 -7 90 -11 36 -3 79
-8 95 -10 170 -21 646 -21 815 0 14 2 56 7 93 10 37 4 76 9 85 11 9 1 40 6 67
9 163 22 424 82 600 138 189 59 376 135 390 157 28 46 -3 91 -65 96 -188 16
-365 123 -550 333 -36 41 -70 79 -75 85 -54 60 -210 289 -286 417 -195 334
-406 791 -571 1240 -27 74 -52 138 -56 141 -15 14 -48 17 -69 7z m47 -565 c19
-122 19 -122 41 -232 12 -57 23 -114 25 -126 2 -13 13 -67 25 -121 12 -55 25
-117 29 -139 20 -95 104 -419 136 -525 20 -63 40 -130 46 -149 58 -198 197
-481 287 -583 23 -26 38 -49 34 -51 -9 -5 -70 -14 -158 -22 -33 -3 -73 -7 -90
-10 -146 -22 -595 -22 -790 -1 -16 2 -59 7 -95 11 -36 3 -67 8 -69 10 -2 3 15
33 37 67 121 187 251 583 365 1118 20 91 38 179 41 195 3 17 8 41 11 55 2 14
7 36 9 50 3 14 16 86 30 160 26 143 59 337 59 358 0 6 3 12 7 12 4 0 13 -35
20 -77z m-201 -270 c-21 -115 -54 -284 -74 -378 -20 -93 -38 -181 -41 -195 -8
-41 -53 -219 -76 -300 -123 -442 -251 -725 -345 -761 -37 -14 -326 51 -556
125 -115 37 -116 38 -55 66 196 87 464 360 673 684 137 214 338 596 449 854
27 61 52 112 56 112 3 0 -10 -93 -31 -207z m404 55 c354 -790 730 -1306 1087
-1489 l73 -37 -139 -45 c-129 -42 -305 -89 -382 -102 -118 -20 -277 205 -404
575 -27 79 -74 225 -83 260 -2 8 -20 76 -40 150 -20 74 -38 143 -40 154 -3 10
-18 80 -36 155 -31 135 -36 157 -43 196 -23 119 -57 295 -62 315 -9 41 1 22
69 -132z"/>
</g>
</svg>
